<svg xmlns="http://www.w3.org/2000/svg" viewBox="0 0 32 32" fill="none">
  <!-- Background rounded square -->
  <rect width="32" height="32" rx="7" fill="#1a1b4b"/>

  <!-- Left speech bubble -->
  <path d="M5 8 Q5 5 8 5 L17 5 Q20 5 20 8 L20 14 Q20 17 17 17 L11 17 L8 20 L9 17 L8 17 Q5 17 5 14 Z"
        fill="#f95c5c" opacity="0.85"/>

  <!-- Right speech bubble (offset, overlapping) -->
  <path d="M13 13 Q13 10 16 10 L24 10 Q27 10 27 13 L27 19 Q27 22 24 22 L23 22 L24 25 L21 22 L16 22 Q13 22 13 19 Z"
        fill="#f95c5c"/>

  <!-- Checkmark / deal-close dot inside right bubble -->
  <circle cx="18" cy="16" r="1.3" fill="#1a1b4b"/>
  <circle cx="21" cy="16" r="1.3" fill="#1a1b4b"/>
  <circle cx="24" cy="16" r="1.3" fill="#1a1b4b"/>
</svg>
